<mxfile host="app.diagrams.net" modified="2023-12-25T15:05:36.154Z" agent="Mozilla/5.0 (Windows NT 10.0; Win64; x64) AppleWebKit/537.36 (KHTML, like Gecko) Chrome/120.0.0.0 Safari/537.36 Edg/120.0.0.0" etag="JMKVLf8OizAmLbnY0Nrn" version="22.1.11" type="device">
  <diagram name="Page-1" id="luprkxz4Sg0Ri3mIDj4t">
    <mxGraphModel dx="1282" dy="1635" grid="1" gridSize="10" guides="1" tooltips="1" connect="1" arrows="1" fold="1" page="1" pageScale="1" pageWidth="850" pageHeight="1100" math="0" shadow="0">
      <root>
        <mxCell id="0" />
        <mxCell id="1" parent="0" />
        <mxCell id="jdCrTWtII0duZCCrANSL-3" style="edgeStyle=orthogonalEdgeStyle;rounded=0;orthogonalLoop=1;jettySize=auto;html=1;exitX=1;exitY=0.5;exitDx=0;exitDy=0;entryX=0;entryY=0.5;entryDx=0;entryDy=0;" parent="1" source="uxte9Tt47OVvxH6o0-YY-1" target="uxte9Tt47OVvxH6o0-YY-3" edge="1">
          <mxGeometry relative="1" as="geometry">
            <Array as="points">
              <mxPoint x="560" y="265" />
              <mxPoint x="560" y="65" />
            </Array>
          </mxGeometry>
        </mxCell>
        <mxCell id="uxte9Tt47OVvxH6o0-YY-1" value="2&lt;br&gt;Check approval process" style="ellipse;whiteSpace=wrap;html=1;" parent="1" vertex="1">
          <mxGeometry x="310" y="210" width="110" height="110" as="geometry" />
        </mxCell>
        <mxCell id="uxte9Tt47OVvxH6o0-YY-13" style="edgeStyle=orthogonalEdgeStyle;rounded=0;orthogonalLoop=1;jettySize=auto;html=1;exitX=1;exitY=1;exitDx=0;exitDy=0;entryX=0.5;entryY=0;entryDx=0;entryDy=0;" parent="1" source="uxte9Tt47OVvxH6o0-YY-2" target="uxte9Tt47OVvxH6o0-YY-11" edge="1">
          <mxGeometry relative="1" as="geometry">
            <Array as="points">
              <mxPoint x="290" y="74" />
            </Array>
          </mxGeometry>
        </mxCell>
        <mxCell id="uxte9Tt47OVvxH6o0-YY-2" value="1&lt;br&gt;Request reservation process" style="ellipse;whiteSpace=wrap;html=1;" parent="1" vertex="1">
          <mxGeometry x="100" y="-20" width="140" height="110" as="geometry" />
        </mxCell>
        <mxCell id="uxte9Tt47OVvxH6o0-YY-17" style="edgeStyle=orthogonalEdgeStyle;rounded=0;orthogonalLoop=1;jettySize=auto;html=1;exitX=0;exitY=0;exitDx=0;exitDy=0;entryX=1;entryY=0.5;entryDx=0;entryDy=0;" parent="1" source="uxte9Tt47OVvxH6o0-YY-3" target="uxte9Tt47OVvxH6o0-YY-14" edge="1">
          <mxGeometry relative="1" as="geometry" />
        </mxCell>
        <mxCell id="uxte9Tt47OVvxH6o0-YY-3" value="3&lt;br&gt;Request approval process" style="ellipse;whiteSpace=wrap;html=1;" parent="1" vertex="1">
          <mxGeometry x="620" y="10" width="110" height="110" as="geometry" />
        </mxCell>
        <mxCell id="uxte9Tt47OVvxH6o0-YY-4" value="Lab staff" style="rounded=1;whiteSpace=wrap;html=1;" parent="1" vertex="1">
          <mxGeometry x="615" y="350" width="120" height="60" as="geometry" />
        </mxCell>
        <mxCell id="uxte9Tt47OVvxH6o0-YY-5" value="Undergraduates /&lt;br&gt;Postgraduates /&lt;br&gt;Doctors" style="rounded=1;whiteSpace=wrap;html=1;" parent="1" vertex="1">
          <mxGeometry x="100" y="340" width="120" height="60" as="geometry" />
        </mxCell>
        <mxCell id="uxte9Tt47OVvxH6o0-YY-9" value="" style="edgeStyle=none;orthogonalLoop=1;jettySize=auto;html=1;rounded=0;exitX=0.421;exitY=-0.036;exitDx=0;exitDy=0;exitPerimeter=0;entryX=0.317;entryY=0.971;entryDx=0;entryDy=0;entryPerimeter=0;" parent="1" source="uxte9Tt47OVvxH6o0-YY-5" target="uxte9Tt47OVvxH6o0-YY-2" edge="1">
          <mxGeometry width="100" relative="1" as="geometry">
            <mxPoint x="190" y="160" as="sourcePoint" />
            <mxPoint x="90" y="160" as="targetPoint" />
            <Array as="points" />
          </mxGeometry>
        </mxCell>
        <mxCell id="uxte9Tt47OVvxH6o0-YY-21" value="Request reservation" style="edgeLabel;html=1;align=center;verticalAlign=middle;resizable=0;points=[];rotation=-90;" parent="uxte9Tt47OVvxH6o0-YY-9" vertex="1" connectable="0">
          <mxGeometry x="-0.1809" y="-2" relative="1" as="geometry">
            <mxPoint y="-15" as="offset" />
          </mxGeometry>
        </mxCell>
        <mxCell id="uxte9Tt47OVvxH6o0-YY-10" value="" style="edgeStyle=none;orthogonalLoop=1;jettySize=auto;html=1;rounded=0;entryX=0.389;entryY=0;entryDx=0;entryDy=0;entryPerimeter=0;" parent="1" edge="1">
          <mxGeometry width="100" relative="1" as="geometry">
            <mxPoint x="180" y="90" as="sourcePoint" />
            <mxPoint x="180" y="340" as="targetPoint" />
            <Array as="points" />
          </mxGeometry>
        </mxCell>
        <mxCell id="uxte9Tt47OVvxH6o0-YY-12" style="edgeStyle=orthogonalEdgeStyle;rounded=0;orthogonalLoop=1;jettySize=auto;html=1;exitX=0.5;exitY=1;exitDx=0;exitDy=0;entryX=0;entryY=0.5;entryDx=0;entryDy=0;" parent="1" source="uxte9Tt47OVvxH6o0-YY-11" target="uxte9Tt47OVvxH6o0-YY-1" edge="1">
          <mxGeometry relative="1" as="geometry" />
        </mxCell>
        <mxCell id="uxte9Tt47OVvxH6o0-YY-11" value="Request details" style="shape=partialRectangle;whiteSpace=wrap;html=1;left=0;right=0;fillColor=none;" parent="1" vertex="1">
          <mxGeometry x="230" y="130" width="120" height="30" as="geometry" />
        </mxCell>
        <mxCell id="uxte9Tt47OVvxH6o0-YY-16" style="edgeStyle=orthogonalEdgeStyle;rounded=0;orthogonalLoop=1;jettySize=auto;html=1;exitX=0;exitY=0.5;exitDx=0;exitDy=0;entryX=1;entryY=0.5;entryDx=0;entryDy=0;" parent="1" source="uxte9Tt47OVvxH6o0-YY-14" target="uxte9Tt47OVvxH6o0-YY-2" edge="1">
          <mxGeometry relative="1" as="geometry" />
        </mxCell>
        <mxCell id="uxte9Tt47OVvxH6o0-YY-14" value="Order details" style="shape=partialRectangle;whiteSpace=wrap;html=1;left=0;right=0;fillColor=none;" parent="1" vertex="1">
          <mxGeometry x="365" y="20" width="120" height="30" as="geometry" />
        </mxCell>
        <mxCell id="uxte9Tt47OVvxH6o0-YY-18" style="edgeStyle=orthogonalEdgeStyle;rounded=0;orthogonalLoop=1;jettySize=auto;html=1;exitX=0.25;exitY=0;exitDx=0;exitDy=0;" parent="1" source="uxte9Tt47OVvxH6o0-YY-4" edge="1">
          <mxGeometry relative="1" as="geometry">
            <mxPoint x="644" y="110" as="targetPoint" />
            <Array as="points">
              <mxPoint x="644" y="350" />
            </Array>
          </mxGeometry>
        </mxCell>
        <mxCell id="uxte9Tt47OVvxH6o0-YY-20" style="edgeStyle=orthogonalEdgeStyle;rounded=0;orthogonalLoop=1;jettySize=auto;html=1;exitX=1;exitY=1;exitDx=0;exitDy=0;entryX=1;entryY=1;entryDx=0;entryDy=0;" parent="1" target="uxte9Tt47OVvxH6o0-YY-3" edge="1">
          <mxGeometry relative="1" as="geometry">
            <mxPoint x="713" y="350" as="sourcePoint" />
          </mxGeometry>
        </mxCell>
        <mxCell id="uxte9Tt47OVvxH6o0-YY-22" value="Approval / Denial" style="edgeLabel;html=1;align=center;verticalAlign=middle;resizable=0;points=[];rotation=-90;" parent="1" vertex="1" connectable="0">
          <mxGeometry x="179.99662883788238" y="219.9970757700241" as="geometry" />
        </mxCell>
        <mxCell id="uxte9Tt47OVvxH6o0-YY-26" value="Lab reservation request" style="edgeLabel;html=1;align=center;verticalAlign=middle;resizable=0;points=[];rotation=-90;" parent="1" vertex="1" connectable="0">
          <mxGeometry x="643.9966288378823" y="229.76707577002412" as="geometry" />
        </mxCell>
        <mxCell id="uxte9Tt47OVvxH6o0-YY-28" value="Approval / Denial" style="edgeLabel;html=1;align=center;verticalAlign=middle;resizable=0;points=[];rotation=-90;" parent="1" vertex="1" connectable="0">
          <mxGeometry x="712.9966288378824" y="225.9970757700241" as="geometry" />
        </mxCell>
      </root>
    </mxGraphModel>
  </diagram>
</mxfile>
